<svg xmlns="http://www.w3.org/2000/svg" xmlns:xlink="http://www.w3.org/1999/xlink" viewBox="0 0 512 512" xmlns:v="https://vecta.io/nano"><path d="M7.837 176.347h496.327v261.224H7.837z" fill="#4b92b9"/><g fill="#caf9f4"><path d="M39.184 207.694h26.122v26.122H39.184zm50.938 0h26.122v26.122H90.122z"/><use xlink:href="#B"/><path d="M192 207.694h26.122v26.122H192z"/><use xlink:href="#B" x="101.878"/><path d="M293.878 207.694H320v26.122h-26.122z"/><use xlink:href="#B" x="203.755"/><use xlink:href="#B" x="254.694"/><use xlink:href="#B" x="305.633"/></g><g fill="#79cae8"><path d="M39.184 265.164h26.122v26.122H39.184zm50.938 0h26.122v26.122H90.122z"/><use xlink:href="#B" y="57.47"/><path d="M192 265.164h26.122v26.122H192z"/><use xlink:href="#B" x="101.878" y="57.47"/><path d="M293.878 265.164H320v26.122h-26.122z"/><use xlink:href="#B" x="203.755" y="57.47"/><path d="M395.755 265.164h77.061v26.122h-77.061zM39.184 322.633h77.061v26.122H39.184z"/><use xlink:href="#B" y="114.939"/><path d="M192 322.633h26.122v26.122H192z"/><use xlink:href="#B" x="101.878" y="114.939"/><path d="M293.878 322.633H320v26.122h-26.122z"/><use xlink:href="#B" x="203.755" y="114.939"/><use xlink:href="#B" x="305.633" y="114.939"/><path d="M39.184 380.103h26.122v26.122H39.184zm50.938 0h50.939v26.122H90.122zm77.062 0H320v26.122H167.184z"/></g><g fill="#ff503d"><use xlink:href="#B" x="254.694" y="114.939"/><use xlink:href="#B" x="203.755" y="172.409"/><use xlink:href="#B" x="254.694" y="172.409"/><use xlink:href="#B" x="305.633" y="172.409"/></g><path d="M0 168.51v276.898h512V168.51H0h0zm496.327 261.224H15.673V184.183h480.653v245.551zM73.143 199.857H31.347v41.796h41.796v-41.796zm-15.674 26.122H47.02V215.53h10.449v10.449zm66.613-26.122H82.286v41.796h41.796v-41.796zm-15.674 26.122H97.959V215.53h10.449v10.449z"/><use xlink:href="#C"/><use xlink:href="#C" x="50.939"/><path d="M276.898 199.857h-41.796v41.796h41.796v-41.796zm-15.674 26.122h-10.449V215.53h10.449v10.449zm66.613-26.122h-41.796v41.796h41.796v-41.796zm-15.674 26.122h-10.449V215.53h10.449v10.449zm66.612-26.122H336.98v41.796h41.796v-41.796zm-15.673 26.122h-10.449V215.53h10.449v10.449z"/><use xlink:href="#C" x="254.694"/><use xlink:href="#C" x="305.633"/><path d="M73.143 257.326H31.347v41.796h41.796v-41.796zm-15.674 26.122H47.02v-10.449h10.449v10.449zm66.613-26.122H82.286v41.796h41.796v-41.796zm-15.674 26.122H97.959v-10.449h10.449v10.449z"/><use xlink:href="#D"/><use xlink:href="#D" x="50.939"/><use xlink:href="#E"/><use xlink:href="#E" x="50.939"/><path d="M378.775 257.326H336.98v41.796h41.796v-41.796zm-15.673 26.122h-10.449v-10.449h10.449v10.449z"/><use xlink:href="#F"/><path d="M480.653 257.326h-92.735v41.796h92.735v-41.796zm-15.673 26.122h-61.388v-10.449h61.388v10.449zm-340.898 31.347H31.347v41.796h92.735v-41.796zm-15.674 26.123H47.02v-10.449h61.388v10.449z"/><use xlink:href="#F" x="-254.694"/><use xlink:href="#F" x="-203.755"/><use xlink:href="#G"/><use xlink:href="#G" x="50.939"/><path d="M378.775 314.795H336.98v41.796h41.796v-41.796zm-15.673 26.123h-10.449v-10.449h10.449v10.449zm75.755 15.673h41.796v-41.796h-41.796v41.796zm15.674-26.122h10.449v10.449h-10.449v-10.449zM73.143 372.265H31.347v41.796h41.796v-41.796zm-15.674 26.122H47.02v-10.449h10.449v10.449zm24.817 15.674h66.612v-41.796H82.286v41.796zm15.673-26.123h35.265v10.449H97.959v-10.449zm61.388 26.123h168.49v-41.796h-168.49v41.796zm15.673-26.123h137.143v10.449H175.02v-10.449zm203.755-15.673H336.98v41.796h41.796v-41.796zm-15.673 26.122h-10.449v-10.449h10.449v10.449z"/><use xlink:href="#D" x="254.694" y="114.939"/><path d="M438.857 414.061h41.796v-41.796h-41.796v41.796zm15.674-26.123h10.449v10.449h-10.449v-10.449zM256 82.266c27.509 0 53.373 10.713 72.825 30.166l11.083-11.083c-22.413-22.412-52.214-34.756-83.91-34.756s-61.496 12.343-83.908 34.756l11.082 11.083C202.627 92.979 228.49 82.266 256 82.266zm-56.25 46.743l11.082 11.082c12.064-12.064 28.106-18.709 45.167-18.709s33.102 6.645 45.167 18.709l11.083-11.082c-15.026-15.026-35.002-23.301-56.25-23.301s-41.224 8.276-56.249 23.301z"/><defs ><path id="B" d="M141.061 207.694h26.122v26.122h-26.122z"/><path id="C" d="M175.02 199.857h-41.796v41.796h41.796v-41.796zm-15.673 26.122h-10.449V215.53h10.449v10.449z"/><path id="D" d="M175.02 257.326h-41.796v41.796h41.796v-41.796zm-15.673 26.122h-10.449v-10.449h10.449v10.449z"/><path id="E" d="M276.898 257.326h-41.796v41.796h41.796v-41.796zm-15.674 26.122h-10.449v-10.449h10.449v10.449z"/><path id="F" d="M429.714 314.795h-41.796v41.796h41.796v-41.796zm-15.673 26.123h-10.449v-10.449h10.449v10.449z"/><path id="G" d="M276.898 314.795h-41.796v41.796h41.796v-41.796zm-15.674 26.123h-10.449v-10.449h10.449v10.449z"/></defs></svg>