<svg xmlns="http://www.w3.org/2000/svg" xmlns:xlink="http://www.w3.org/1999/xlink" viewBox="0 0 512 512" xmlns:v="https://vecta.io/nano"><g fill="#f3d55b"><use xlink:href="#B"/><path d="M494.933 85.333a8.54 8.54 0 0 1-8.533 8.533 8.54 8.54 0 0 1-8.533-8.533A8.54 8.54 0 0 1 486.4 76.8a8.54 8.54 0 0 1 8.533 8.533m-460.8 332.8a8.54 8.54 0 0 1-8.533 8.533 8.54 8.54 0 0 1-8.533-8.533A8.54 8.54 0 0 1 25.6 409.6a8.54 8.54 0 0 1 8.533 8.533"/><use xlink:href="#B" x="-366.933" y="-85.333"/><path d="M34.108 42.667c3.234 2.432 6.127 5.316 8.559 8.559 2.432-3.243 5.316-6.127 8.559-8.559-3.243-2.432-6.127-5.316-8.559-8.559a43.06 43.06 0 0 1-8.559 8.559m8.559 42.666c-4.71 0-8.533-3.814-8.533-8.533 0-14.114-11.486-25.6-25.6-25.6C3.823 51.2 0 47.386 0 42.667s3.823-8.533 8.533-8.533c14.114 0 25.6-11.486 25.6-25.6C34.134 3.814 37.957 0 42.667 0S51.2 3.814 51.2 8.533c0 14.114 11.486 25.6 25.6 25.6 4.71 0 8.533 3.814 8.533 8.533S81.511 51.2 76.8 51.2c-14.114 0-25.6 11.486-25.6 25.6 0 4.719-3.823 8.533-8.533 8.533m404.6 375.467l13.534 13.534 13.534-13.534-13.535-13.534-13.533 13.534zm13.533 37.666L423.134 460.8l37.666-37.666 37.666 37.666-37.666 37.666z"/><path d="M460.8 443.733c-4.719 0-8.533-3.814-8.533-8.533v-17.067c0-4.719 3.814-8.533 8.533-8.533s8.533 3.814 8.533 8.533V435.2c0 4.719-3.814 8.533-8.533 8.533m42.666 25.6H486.4c-4.719 0-8.533-3.814-8.533-8.533s3.814-8.533 8.533-8.533h17.067c4.719 0 8.533 3.814 8.533 8.533s-3.815 8.533-8.534 8.533M460.8 512c-4.719 0-8.533-3.814-8.533-8.533V486.4c0-4.719 3.814-8.533 8.533-8.533s8.533 3.814 8.533 8.533v17.067c0 4.719-3.814 8.533-8.533 8.533m-25.6-42.667h-17.067c-4.719 0-8.533-3.814-8.533-8.533s3.814-8.533 8.533-8.533H435.2c4.719 0 8.533 3.814 8.533 8.533s-3.814 8.533-8.533 8.533"/></g><path d="M281.6 349.867c0 42.419-11.46 76.8-25.6 76.8s-25.6-34.381-25.6-76.8 11.46-76.8 25.6-76.8 25.6 34.38 25.6 76.8" fill="#b0b6bb"/><path d="M349.866 238.933c0-23.287-1.229-43.648-2.756-59.955-3.081-32.939-10.999-65.34-25.139-95.249C291.908 20.156 256 8.533 256 8.533s-35.908 11.622-65.971 75.196c-14.14 29.909-22.059 62.31-25.139 95.249-1.527 16.307-2.756 36.668-2.756 59.955 0 0-1.067 101.333 25.6 128 0 0 12.86 17.988 46.618 23.782-2.492-11.844-3.951-25.822-3.951-40.849 0-42.419 11.46-76.8 25.6-76.8s25.6 34.381 25.6 76.8c0 15.027-1.459 29.005-3.951 40.849 33.758-5.794 46.618-23.782 46.618-23.782 26.665-26.666 25.598-128 25.598-128" fill="#e8edee"/><path d="M349.866 273.067l-1.289 2.577c-2.219 31.812-8.201 75.179-24.311 91.29 0 0-.145.196-.367.469-.051.068-.051.068-.119.145a26.28 26.28 0 0 1-1.092 1.263c-.094.102-.128.154-.23.265l56.26 39.39c5.82 4.07 13.815-.094 13.815-7.194v-34.338c0-67.201-42.667-93.867-42.667-93.867M188.218 367.55l-.119-.145-.367-.469c-16.111-16.119-22.093-59.477-24.311-91.29l-1.289-2.577s-42.667 26.667-42.667 93.867v34.338c0 7.1 7.996 11.264 13.815 7.194l56.26-39.39c-.094-.111-.128-.162-.222-.265-.486-.529-.844-.947-1.1-1.263" fill="#b0b6bb"/><path d="M286.313 396.126s-2.884-3.319-8.439-6.485c-4.497 22.17-12.595 37.026-21.871 37.026s-17.374-14.848-21.871-37.009c-2.807 1.673-5.666 3.686-8.448 6.468-14.609 14.609-16.307 37.376-4.838 54.562l35.157 52.779 35.157-52.642c11.461-17.195 9.762-40.09-4.847-54.699" fill="#f3d55b"/><path d="M315.733 179.2c0 32.99-26.743 59.733-59.733 59.733s-59.733-26.743-59.733-59.733S223.01 119.467 256 119.467s59.733 26.743 59.733 59.733" fill="#b0b6bb"/><path d="M281.6 179.2c0 14.14-11.46 25.6-25.6 25.6s-25.6-11.46-25.6-25.6 11.46-25.6 25.6-25.6 25.6 11.46 25.6 25.6" fill="#e8edee"/><path d="M256 85.333c22.161 0 42.3-6.801 57.455-17.894C285.533 18.227 256 8.533 256 8.533s-29.534 9.694-57.455 58.906C213.7 78.532 233.839 85.333 256 85.333" fill="#d75a4a"/><defs ><path id="B" d="M452.266 290.133a8.54 8.54 0 0 1-8.533 8.533 8.54 8.54 0 0 1-8.533-8.533 8.54 8.54 0 0 1 8.533-8.533 8.54 8.54 0 0 1 8.533 8.533"/></defs></svg>