<svg xmlns="http://www.w3.org/2000/svg" viewBox="0 0 489.9 489.9" xmlns:v="https://vecta.io/nano"><path d="M268.9 70.25c-4.9 0-9.8 1.3-14.2 3.8-.3.2-.6.3-.8.5l-100.1 69.2H73.3c-40.4 0-73.3 32.9-73.3 73.3v55.6c0 40.4 32.9 73.3 73.3 73.3h84.5l95.9 69.2c.3.2.7.5 1 .7 4.3 2.5 9.2 3.8 14.2 3.8h0c7.4 0 14.4-2.8 19.7-7.9 5.6-5.4 8.7-12.6 8.7-20.4V98.65c0-15.7-12.7-28.4-28.4-28.4zm3.9 321c0 1.1-.4 2-1.1 2.8-.7.7-1.8 1.1-2.7 1.1-.5 0-1-.1-1.5-.3l-98.4-71.1a12.34 12.34 0 0 0-7.2-2.3H73.3c-26.9 0-48.8-21.9-48.8-48.8v-55.6c0-26.9 21.9-48.8 48.8-48.8h84.3c2.5 0 4.9-.8 7-2.2l102.7-71c.5-.3 1.1-.4 1.6-.4 1.6 0 3.9 1.2 3.9 3.9v292.7zm213.3-219.9a12.19 12.19 0 0 0-17.3 0l-56.3 56.3-56.3-56.3a12.233 12.233 0 1 0-17.3 17.3l56.3 56.3-56.3 56.3a12.19 12.19 0 0 0 0 17.3 12.18 12.18 0 0 0 8.7 3.6 12.18 12.18 0 0 0 8.7-3.6l56.3-56.3 56.3 56.3a12.18 12.18 0 0 0 8.7 3.6 12.18 12.18 0 0 0 8.7-3.6 12.19 12.19 0 0 0 0-17.3l-56.5-56.3 56.3-56.3a12.38 12.38 0 0 0 0-17.3z"/></svg>