<svg xmlns="http://www.w3.org/2000/svg" xmlns:xlink="http://www.w3.org/1999/xlink" viewBox="0 0 72 72" xmlns:v="https://vecta.io/nano"><use xlink:href="#B" fill="#fcea2b"/><g fill="none" stroke="#000" stroke-linecap="round" stroke-linejoin="round" stroke-width="2"><use xlink:href="#B"/><path d="M11.673 42.872c0 2.566 1.747 4.643 3.906 4.643m-8.518-5.078c0 5.596 3.809 10.124 8.517 10.124m29.684-31.323c0-2.566-1.747-4.643-3.906-4.643m8.517 5.078c0-5.596-3.809-10.124-8.517-10.124" stroke-miterlimit="10"/></g><defs ><path id="B" d="M18.658 19.241a3.53 3.53 0 0 0-6.13 3.507c.155.271.346.521.567.742l11.532 15.1 2.688 3.388-7.891-10.331a3.53 3.53 0 0 0-6.13 3.507 3.53 3.53 0 0 0 .567.742l7.891 10.331 6.271 7.899c5.467 6.273 14.515 5.931 20.786.465 3.605-3.168 5.923-7.548 6.515-12.31.386-4.233.807-15.301.807-15.301-.183-2.601-3.135-4.523-3.516-3.18l-4.894 9.758-3.366-4.222 3.366 4.222-3.366-4.222-13.465-17.209a3.53 3.53 0 1 0-6.13 3.507c.155.271.346.521.567.742l4.249 5.563L36 30.417l-13.419-17.68a3.53 3.53 0 0 0-6.13 3.507 3.53 3.53 0 0 0 .567.742L31.689 36"/></defs></svg>